<?xml version="1.0" encoding="utf-8"?>
<!-- Generator: Adobe Illustrator 24.0.1, SVG Export Plug-In . SVG Version: 6.00 Build 0)  -->
<svg version="1.1" id="Layer_1" xmlns="http://www.w3.org/2000/svg" xmlns:xlink="http://www.w3.org/1999/xlink" x="0px" y="0px"
	 viewBox="0 0 360 360" style="enable-background:new 0 0 360 360;" xml:space="preserve">
<style type="text/css">
	.st0{fill:#252122;}
	.st1{fill:#E9198A;}
	.st2{fill:#31A8E0;}
	.st3{fill:#F8EC22;}
</style>
<g>
	<path class="st0" d="M36.3,284.1h4.2c2.3,0,3.9,0.2,4.9,0.6c1,0.4,1.8,1.1,2.4,2s0.9,2,0.9,3.3c0,1.4-0.4,2.6-1.1,3.6
		c-0.8,1-1.8,1.6-3.1,2c-0.8,0.2-2.1,0.3-4.2,0.3v8.7h-3.9L36.3,284.1z M40.3,292.2h1.3c1,0,1.7-0.1,2-0.2c0.4-0.1,0.7-0.4,0.9-0.7
		c0.2-0.3,0.3-0.7,0.3-1.2c0-0.8-0.3-1.4-0.9-1.7c-0.5-0.3-1.3-0.4-2.5-0.4h-1.1V292.2z"/>
	<path class="st0" d="M58.8,284.1h4l7.9,20.6h-4.1l-1.6-4.3h-8.4l-1.7,4.3h-4.1L58.8,284.1z M60.8,289.6l-2.8,7.1h5.5L60.8,289.6z"
		/>
	<path class="st0" d="M73.8,284.1h4.2c2.3,0,3.9,0.2,4.9,0.6c1,0.4,1.8,1.1,2.4,2s0.9,2,0.9,3.3c0,1.4-0.4,2.6-1.1,3.6
		c-0.8,1-1.8,1.6-3.1,2c-0.8,0.2-2.1,0.3-4.2,0.3v8.7h-3.9L73.8,284.1z M77.7,292.2h1.3c1,0,1.7-0.1,2.1-0.2
		c0.4-0.1,0.7-0.4,0.9-0.7c0.2-0.3,0.3-0.7,0.3-1.2c0-0.8-0.3-1.4-0.9-1.7c-0.4-0.3-1.3-0.4-2.5-0.4h-1.1L77.7,292.2z"/>
	<path class="st0" d="M89.9,284.1h11.3v3.8h-7.4v3.7h7.4v3.8h-7.4v5.4h7.4v3.9H89.9V284.1z"/>
	<path class="st0" d="M105.1,284.1h4.2c2.3,0,3.9,0.2,4.9,0.6c1,0.4,1.8,1.1,2.3,2c0.6,0.9,0.9,2.1,0.9,3.4c0,1.4-0.3,2.5-1,3.4
		s-1.6,1.6-2.9,2.1l4.9,9.2H114l-4.6-8.7H109v8.7h-3.9V284.1z M109,292.2h1.2c1.3,0,2.1-0.2,2.6-0.5s0.7-0.9,0.7-1.6
		c0-0.5-0.1-0.8-0.3-1.2c-0.2-0.3-0.6-0.6-0.9-0.7s-1.1-0.2-2.2-0.2H109L109,292.2z"/>
	<path class="st0" d="M135.9,284.1h4l7.9,20.6h-4.1l-1.6-4.3h-8.4l-1.7,4.3h-4.1L135.9,284.1z M137.9,289.6l-2.8,7.1h5.5
		L137.9,289.6z"/>
	<path class="st0" d="M150.9,284.1h3.8l8.8,13.6v-13.6h3.9v20.6h-3.8l-8.8-13.5v13.5h-3.9V284.1z"/>
	<path class="st0" d="M172.2,284.1h4.7c3,0,5.2,0.4,6.7,1.1c1.5,0.7,2.7,2,3.6,3.6c0.9,1.7,1.4,3.6,1.4,5.9c0,1.6-0.3,3-0.8,4.4
		c-0.5,1.3-1.3,2.4-2.2,3.3c-0.9,0.9-1.9,1.5-3,1.8c-1.1,0.3-3,0.5-5.6,0.5h-4.7L172.2,284.1z M176.1,287.9v13h1.8
		c1.8,0,3.1-0.2,3.9-0.6s1.5-1.1,2-2.1c0.5-1,0.8-2.2,0.8-3.6c0-2.2-0.6-3.9-1.8-5.1c-1.1-1.1-2.9-1.6-5.3-1.6L176.1,287.9z"/>
	<path class="st0" d="M200.4,284.1h4.2c2.3,0,3.9,0.2,4.9,0.6c1,0.4,1.8,1.1,2.4,2s0.9,2,0.9,3.3c0,1.4-0.4,2.6-1.1,3.6
		c-0.8,1-1.8,1.6-3.1,2c-0.8,0.2-2.1,0.3-4.1,0.3v8.7h-3.9L200.4,284.1z M204.3,292.2h1.3c1,0,1.7-0.1,2.1-0.2
		c0.4-0.1,0.7-0.4,0.9-0.7c0.2-0.3,0.3-0.7,0.3-1.2c0-0.8-0.3-1.4-0.9-1.7c-0.4-0.3-1.3-0.4-2.5-0.4h-1.1L204.3,292.2z"/>
	<path class="st0" d="M216.7,284.1h4.2c2.3,0,3.9,0.2,4.9,0.6c1,0.4,1.8,1.1,2.3,2c0.6,0.9,0.9,2.1,0.9,3.4c0,1.4-0.3,2.5-1,3.4
		s-1.6,1.6-2.9,2.1l4.9,9.2h-4.3L221,296h-0.4v8.7h-3.9L216.7,284.1z M220.7,292.2h1.2c1.3,0,2.1-0.2,2.6-0.5s0.7-0.9,0.7-1.6
		c0-0.5-0.1-0.8-0.4-1.2c-0.2-0.3-0.6-0.6-0.9-0.7s-1.1-0.2-2.2-0.2h-1.1L220.7,292.2z"/>
	<path class="st0" d="M232.9,284.1h3.9v20.6h-3.9V284.1z"/>
	<path class="st0" d="M241.2,284.1h3.8l8.8,13.6v-13.6h3.9v20.6H254l-8.8-13.5v13.5h-3.9V284.1z"/>
	<path class="st0" d="M260.5,284.1h11.4v3.9h-3.8v16.8h-4V288h-3.7V284.1z"/>
	<path class="st0" d="M274.3,284.1h3.9v20.6h-3.9V284.1z"/>
	<path class="st0" d="M282.7,284.1h3.8l8.8,13.6v-13.6h3.9v20.6h-3.8l-8.8-13.5v13.5h-3.9V284.1z"/>
	<path class="st0" d="M323,287.5l-2.8,2.7c-1.8-1.9-3.8-2.8-6.1-2.8c-2,0-3.7,0.7-5.1,2c-1.4,1.4-2.1,3-2.1,4.9c0,2,0.7,3.7,2.1,5.1
		c1.4,1.4,3.2,2.1,5.3,2.1c1.4,0,2.5-0.3,3.4-0.9s1.7-1.5,2.3-2.7h-6v-3.7h10.4l0,0.9c0,1.8-0.5,3.5-1.4,5.1s-2.1,2.9-3.6,3.7
		c-1.5,0.9-3.2,1.3-5.2,1.3c-2.1,0-4.1-0.5-5.7-1.4s-3-2.3-4-4c-1-1.7-1.5-3.6-1.5-5.6c0-2.7,0.9-5.1,2.7-7.1
		c2.1-2.4,4.9-3.6,8.4-3.6c1.8,0,3.5,0.3,5,1C320.5,285.2,321.7,286.2,323,287.5z"/>
</g>
<g>
	<path class="st0" d="M56.7,317.2l-2.8,2.7c-1.9-2-4-3-6.4-3c-2,0-3.7,0.7-5.1,2c-1.4,1.4-2.1,3-2.1,5.1c0,1.4,0.3,2.6,0.9,3.7
		s1.5,1.9,2.6,2.5s2.3,0.9,3.7,0.9c1.2,0,2.2-0.2,3.2-0.6s2-1.2,3.2-2.4l2.7,2.8c-1.5,1.5-3,2.5-4.4,3.1c-1.4,0.6-3,0.9-4.7,0.9
		c-3.3,0-5.9-1-8-3.1s-3.1-4.7-3.1-7.9c0-2.1,0.5-3.9,1.4-5.6c1-1.6,2.3-2.9,4.1-3.9c1.8-1,3.7-1.5,5.7-1.5c1.7,0,3.4,0.4,5,1.1
		C54.1,314.8,55.5,315.9,56.7,317.2z"/>
	<path class="st0" d="M78.2,313c3,0,5.5,1.1,7.7,3.2c2.1,2.1,3.2,4.8,3.2,7.8c0,3-1.1,5.6-3.2,7.8s-4.7,3.2-7.7,3.2
		c-3.2,0-5.8-1.1-7.8-3.3c-2.1-2.2-3.1-4.8-3.1-7.7c0-2,0.5-3.8,1.5-5.5s2.3-3,4-4C74.4,313.5,76.3,313,78.2,313z M78.2,316.9
		c-1.9,0-3.6,0.7-4.9,2c-1.3,1.4-2,3.1-2,5.1c0,2.3,0.8,4.1,2.5,5.5c1.3,1,2.8,1.6,4.4,1.6c1.9,0,3.5-0.7,4.8-2c1.3-1.4,2-3,2-5
		c0-2-0.7-3.7-2-5.1C81.7,317.6,80.1,316.9,78.2,316.9z"/>
	<path class="st0" d="M101.3,313.5h4.2c2.3,0,4,0.2,4.9,0.6c1,0.4,1.8,1.1,2.4,2.1c0.6,1,0.9,2.1,0.9,3.4c0,1.4-0.3,2.5-1,3.5
		c-0.7,0.9-1.7,1.6-3,2.1l5,9.3h-4.4l-4.7-8.9h-0.4v8.9h-4L101.3,313.5z M105.3,321.7h1.3c1.3,0,2.1-0.2,2.6-0.5s0.7-0.9,0.7-1.7
		c0-0.5-0.1-0.9-0.3-1.2c-0.2-0.3-0.6-0.6-0.9-0.7c-0.4-0.1-1.1-0.2-2.2-0.2h-1.1L105.3,321.7z"/>
	<path class="st0" d="M126.1,313.5h4.2c2.3,0,3.9,0.2,4.9,0.6s1.8,1.1,2.4,2c0.6,0.9,0.9,2.1,0.9,3.4c0,1.5-0.4,2.7-1.1,3.6
		c-0.8,1-1.8,1.6-3.1,2c-0.8,0.2-2.2,0.3-4.2,0.3v8.9h-4V313.5z M130.1,321.7h1.3c1,0,1.7-0.1,2.1-0.2c0.4-0.1,0.7-0.4,0.9-0.7
		s0.3-0.7,0.3-1.2c0-0.8-0.3-1.4-0.9-1.8c-0.5-0.3-1.3-0.4-2.5-0.4h-1.1V321.7z"/>
	<path class="st0" d="M160.5,313c3,0,5.5,1.1,7.6,3.2c2.1,2.1,3.2,4.8,3.2,7.8c0,3-1.1,5.6-3.2,7.8s-4.7,3.2-7.7,3.2
		c-3.1,0-5.8-1.1-7.9-3.3c-2.1-2.2-3.1-4.8-3.1-7.7c0-2,0.5-3.8,1.5-5.5s2.3-3,4-4C156.8,313.5,158.6,313,160.5,313z M160.5,316.9
		c-1.9,0-3.6,0.7-4.9,2c-1.3,1.4-2,3.1-2,5.1c0,2.3,0.8,4.1,2.5,5.5c1.3,1,2.8,1.6,4.4,1.6c1.9,0,3.5-0.7,4.8-2c1.3-1.4,2-3,2-5
		c0-2-0.7-3.7-2-5.1C164.1,317.6,162.4,316.9,160.5,316.9z"/>
	<path class="st0" d="M183.6,313.5h4.2c2.3,0,4,0.2,4.9,0.6s1.8,1.1,2.4,2.1c0.6,1,0.9,2.1,0.9,3.4c0,1.4-0.3,2.5-1,3.5
		c-0.7,0.9-1.7,1.6-3,2.1l5,9.3h-4.4l-4.7-8.9h-0.4v8.9h-4L183.6,313.5z M187.6,321.7h1.3c1.3,0,2.1-0.2,2.6-0.5s0.7-0.9,0.7-1.7
		c0-0.5-0.1-0.9-0.4-1.2c-0.2-0.3-0.6-0.6-0.9-0.7c-0.4-0.1-1.1-0.2-2.2-0.2h-1.1L187.6,321.7z"/>
	<path class="st0" d="M214.8,313.6h4.1l8.1,20.9h-4.1l-1.6-4.3h-8.6l-1.7,4.3h-4.1L214.8,313.6z M216.9,319.1l-2.8,7.2h5.6
		L216.9,319.1z"/>
	<path class="st0" d="M236.1,313.6h11.6v3.9h-3.8v17h-4.1v-17h-3.7L236.1,313.6z"/>
	<path class="st0" d="M258.4,313.6h4v20.9h-4V313.6z"/>
	<path class="st0" d="M284.9,313c3,0,5.5,1.1,7.6,3.2c2.1,2.1,3.2,4.8,3.2,7.8c0,3-1,5.6-3.2,7.8c-2.1,2.1-4.7,3.2-7.7,3.2
		c-3.1,0-5.8-1.1-7.9-3.3c-2.1-2.2-3.1-4.8-3.1-7.7c0-2,0.5-3.8,1.5-5.5s2.3-3,4-4C281.1,313.5,282.9,313,284.9,313z M284.8,316.9
		c-1.9,0-3.6,0.7-4.9,2c-1.3,1.4-2,3.1-2,5.1c0,2.3,0.8,4.1,2.5,5.5c1.3,1,2.8,1.6,4.5,1.6c1.9,0,3.5-0.7,4.8-2c1.3-1.4,2-3,2-5
		c0-2-0.7-3.7-2-5.1C288.4,317.6,286.8,316.9,284.8,316.9z"/>
	<path class="st0" d="M307.7,313.6h3.8l9,13.8v-13.8h4v20.9h-3.8l-9-13.7v13.7h-4V313.6z"/>
</g>
<g>
	<path class="st0" d="M9.5,183c-0.1-0.4,0.1-0.7,0.2-1c2.2-4.6,5-8.9,8.4-12.8c6.2-7.2,13.7-12.6,22.4-16.1c5.2-2.1,10.6-3.5,16.1-4
		c19.7-2,37.7,5.6,49.9,19c6.6,7.2,11.1,15.6,13.5,25.1c0.5,2.1,0.9,4.1,1.2,6.2c0.1,0.5,0.1,1.1,0.1,1.6c-0.5,3.9-1.8,7.4-4.4,10.4
		c-2.6,2.9-5.8,4.8-9.6,5.8c-0.6,0.2-1.3,0.1-1.9,0.1c-16.5,0-33,0-49.5,0c-9,0-17.9,0-26.9,0c-0.4,0-0.8,0-1.2,0
		c-0.4,0-0.5,0.2-0.4,0.6c0.7,2.5,1.6,4.9,2.9,7.3c5.6,10.2,14.1,16.5,25.4,19c13.1,2.2,24.5-1.3,33.9-10.7c0,0,0.1-0.1,0.1-0.1
		c1.3-1.3,0.7-1.2,2.8-1.2c7.4,0,14.9,0,22.3,0c0.2,0,0.3,0,0.4,0c1.3-0.1,1.2,0.2,0.8,1.1c-2.3,4.6-5.1,8.9-8.4,12.8
		c-7.2,8.2-15.9,14-26.3,17.5c-5.8,1.9-11.8,2.9-17.9,2.9c-2.7,0-5.4,0-8.1-0.4c-4.2-0.6-8.3-1.5-12.2-2.9
		c-15.9-5.9-27.4-16.6-34.4-32c-2.5-5.6-3.9-11.4-4.6-17.5c-0.5-5-0.4-10,0.4-15c0.3-2.1,0-1.9,2.1-1.9c29.8,0,59.6,0,89.3,0
		c0.5,0,1.1,0.1,1.6-0.1c0.2-0.4,0-0.7-0.2-1c-2.8-7.5-7.4-13.5-14.1-17.9c-5.2-3.5-11-5.6-17.2-6.1c-11.3-0.9-21,2.6-29.2,10.5
		c-1.3,1.2-0.8,1.1-2.7,1.1c-7.8,0-15.6,0-23.4,0C10.5,183.1,10,183.2,9.5,183z"/>
	<path class="st0" d="M232.6,199.5c0.1,0.6,0.1,1.1-0.1,1.6c-0.4,1.5-0.5,3.1-0.5,4.7c-0.1,2.9-0.1,5.9,0.1,8.9c0,0.1,0,0.1,0,0.1
		c0.6,2.5,0.7,5.1,1.3,7.7c0.9,3.6,1.8,7.1,3.3,10.6c0.2,0.4,0.1,0.9-0.1,1.3c-0.6,1.1-1.1,2.2-1.8,3.2c-7.9,12.9-19,21.7-33.5,26.3
		c-7.1,2.3-14.4,3-21.8,2.4c-11.5-0.8-21.9-4.7-31.1-11.7c-10.2-7.7-17.1-17.6-20.9-29.8c-1.2-3.8-1.9-7.7-2.3-11.7
		c-0.3-2.8-0.4-5.6-0.2-8.4c1-15.7,7.1-29.1,18.6-39.9c8.1-7.7,17.8-12.6,28.8-14.8c5.4-1.1,10.9-1.4,16.3-0.9
		c12.7,1,24,5.7,33.7,14c5.8,4.9,10.4,10.7,13.9,17.4c0.9,1.1,0.3,2.1,0,3.2c-0.1,0.2-0.3,0.3-0.5,0.3c-0.3,0-0.5,0-0.7,0
		c-7.3,0-14.6,0-21.9,0c-0.8,0-1.4-0.3-1.9-0.9c-5.9-6.5-13.3-10.5-22-11.6c-10.9-1.5-20.6,1.4-29,8.5c-7,5.9-11.1,13.6-12.4,22.7
		c-2.4,17.3,7.7,33.8,24.3,39.6c4.4,1.5,8.9,2.3,13.5,2c11.6-0.7,21.1-5.7,28.1-15c2.4-3.3,4.8-6.6,7.1-10c4.1-5.9,7.7-12,10.9-18.4
		C232,200.3,232.1,199.9,232.6,199.5z"/>
	<path class="st1" d="M148.9,156.4c-2.1,1.6-4.2,3.1-6.1,4.8c-2.6,2.3-5,4.8-7.2,7.5c-1,1.3-2,2.5-2.9,3.9c-0.2,0.3-0.4,0.5-0.7,0.8
		c-1.3-0.7-2.5-1.4-3.8-2.1c-5.8-3.2-11.7-6.4-17.3-9.9c-1.8-1.1-3.6-2.4-5.4-3.6c-3.9-2.8-7-6.3-9.8-10.2
		c-3.8-5.1-6.9-10.6-9.8-16.3c-1.6-3.1-2.7-6.3-3.3-9.7c-0.5-2.5-0.7-5-0.9-7.5c-0.3-4.3-0.1-8.6,0.3-12.8c0.1-0.9,0.4-1.6,1.1-2.1
		c0.3-0.3,0.6-0.6,1-0.9c11.7-11.3,23.3-22.5,35-33.8c5.6-5.4,11.2-10.8,16.8-16.2c0.3-0.3,0.4-0.7,1-0.6c-0.1,0.8-0.2,1.6-0.2,2.3
		c-0.3,4.3,0.2,8.4,1.4,12.5c1.4,4.9,3.4,9.5,5.6,14.1c1.9,4.1,4.3,7.9,7,11.4c2.7,3.6,5.7,7,8.8,10.3c0.4,0.4,0.8,0.7,1,1.2
		c-0.3,0.5-0.7,0.8-1.1,1.2c-12.6,12.6-25.2,25.1-37.8,37.6c-0.2,0.2-0.5,0.5-0.7,0.7c-0.3,0.3-0.3,0.5,0.2,0.8
		c0.1,0.1,0.2,0.1,0.3,0.1c3.9,2.2,7.9,4.5,11.9,6.6c2.7,1.4,5.3,2.8,7.9,4.4C143.6,152.9,146.3,154.6,148.9,156.4z"/>
	<path class="st0" d="M148.9,156.4c-2.6-1.7-5.3-3.4-8-5.1c-2.6-1.6-5.2-3-7.9-4.4c-4-2.1-7.9-4.4-11.9-6.6
		c-0.1-0.1-0.2-0.1-0.3-0.1c-0.4-0.3-0.5-0.5-0.2-0.8c0.2-0.3,0.5-0.5,0.7-0.7c12.6-12.6,25.2-25.1,37.8-37.6
		c0.4-0.4,0.8-0.7,1.1-1.2c-0.2-0.5-0.6-0.8-1-1.2c-3.1-3.3-6.1-6.7-8.8-10.3c-2.7-3.6-5.1-7.4-7-11.4c-2.1-4.6-4.2-9.2-5.6-14.1
		c-1.2-4.1-1.7-8.3-1.4-12.5c0.1-0.8,0.2-1.6,0.2-2.3c-0.5-0.1-0.7,0.3-1,0.6c-5.6,5.4-11.2,10.8-16.8,16.2
		C107.4,75.8,95.7,87,84,98.3c-0.3,0.3-0.6,0.6-1,0.9c-0.7,0.6-1,1.2-1.1,2.1c-0.4,4.3-0.6,8.5-0.3,12.8c0.2,2.5,0.4,5,0.9,7.5
		c0.7,3.4,1.7,6.6,3.3,9.7c2.9,5.7,6,11.2,9.8,16.3c2.8,3.8,5.9,7.4,9.8,10.2c1.8,1.2,3.6,2.4,5.4,3.6c5.6,3.5,11.5,6.7,17.3,9.9
		c1.3,0.7,2.5,1.4,3.8,2.1c-0.6,1.5-1.7,2.8-2.4,4.2c-1.2,2.2-2.2,4.4-3.2,6.6c-0.9,2.2-1.6,4.4-2.3,6.7c-0.2,0.6-0.4,1.3-0.5,1.9
		c-0.4,0-0.3-0.3-0.4-0.4c-0.8-2.7-1.6-5.4-2.6-8c-0.8-2.1-1.8-4.2-2.9-6.3c-2.8-5.1-6.2-9.8-10.3-13.9c-4.6-4.7-9.8-8.6-15.7-11.6
		c-1.2-0.6-2.2-1.3-3-2.3c-2.1-2.8-4.3-5.5-6.2-8.5c-3.1-4.9-5.2-10.1-6.3-15.8c-0.5-2.7-1.1-5.4-1.6-8.1c-0.3-1.6-0.4-3.1-0.5-4.7
		c-0.2-5.3,0.4-10.4,1.7-15.5c0.3-1,0.7-1.8,1.4-2.5c19.5-19.4,39-38.7,58.5-58.1c3.9-3.8,7.8-7.7,11.6-11.6
		c0.1-0.1,0.3-0.3,0.4-0.4c0.1-0.1,0.3-0.2,0.4-0.1c0.1,0.1,0.1,0.3,0.1,0.4c0,0,0,0.1,0,0.1c-1.4,5-2.5,10-3.3,15.1
		c-0.2,1.5-0.4,2.9-0.6,4.4c-0.9,5.7-0.1,11.3,1.9,16.7c1.1,3,2.6,6,3.9,8.9c0.4,0.9,0.9,1.9,1.3,2.8c1.9,4.5,4.6,8.5,7.6,12.2
		c2.2,2.7,4.6,5.2,7.2,7.6c0.1,0.1,0.2,0.2,0.3,0.3c0.5,0.4,0.5,0.4,1,0c0.2-0.2,0.4-0.4,0.6-0.6c10-9.8,19.9-19.6,29.9-29.4
		c1.3-1.3,1-1.2,2.4-0.3c7,4.1,14.1,8.1,21,12.4c4.1,2.6,8.1,5.3,11.8,8.3c0.8,0.6,1.5,1.3,2.2,1.9c0.3,0.2,0.5,0.5,0.8,0.6
		c0.5-0.2,0.8-0.6,1.1-1c6.7-6.6,13.4-13.2,20.2-19.7c1-0.9,1-1.1,1.8,0.2c1.9,3.2,3.9,6.3,5.8,9.4c2.9,4.7,5.2,9.6,7.2,14.7
		c3.3,8.3,5.9,16.9,8,25.6c0.7,2.7,1.1,5.5,1.3,8.3c0.6,7.2,0.6,14.4,0,21.7c0,0.3,0,0.5-0.1,0.7c-0.1,0.6-0.4,0.9-1,1.1
		c-1.7,0.4-3.5,0.8-5.1,1.4c-0.3,0.1-0.6,0.2-1,0.4c-0.1-0.1-0.2,0-0.3,0.1l-0.1,0l-0.1,0c0-0.7,0.1-1.5,0.2-2.2
		c0.4-3.1,0.7-6.3,0.8-9.4c0.2-5-0.3-9.9-1-14.8c-0.7-4.7-1.7-9.4-2.9-14c-1.1-4.3-2.3-8.5-4.2-12.6c-2.8-5.9-5.9-11.6-9.2-17.2
		c-0.9-1.4-0.7-1.4-1.9-0.2c-21.5,21.5-43,43-64.5,64.6c-0.1,0.1-0.3,0.3-0.4,0.4c-0.6,0.6-0.6,0.6-0.1,1.3c0.2,0.3,0.3,0.5,0.3,0.8
		c-0.1,0-0.2,0-0.3,0c-0.1-0.1-0.2-0.1-0.3,0c-2.2-0.3-4.5-0.2-6.7-0.3c-0.6,0-1.2,0.1-1.8-0.1c-0.3-0.6-0.8-1-1.2-1.5
		c-0.2-0.2-0.2-0.4,0-0.7c0.2-0.2,0.4-0.4,0.6-0.6c2-2.1,4.1-4.1,6.1-6.2c14.1-14.3,28.1-28.5,42.2-42.8c1.1-1.1,1.1-0.9-0.1-2
		c-5-4.5-10.3-8.7-15.9-12.4c-4.2-2.8-8.5-5.5-13-7.9c-0.8-0.4-1-0.4-1.6,0.3c-0.2,0.2-0.3,0.3-0.5,0.5
		c-8.9,9.1-17.8,18.1-26.7,27.2c-12.5,12.7-24.9,25.3-37.4,38c-0.3,0.3-0.6,0.5-0.7,0.9c0.1,0.4,0.5,0.4,0.8,0.6
		c1.6,0.8,3.1,1.6,4.7,2.5c5.5,2.9,10.9,5.9,16.1,9.3c0.5,0.3,1,0.6,1.4,1c-0.9,0.5-1.7,0.9-2.6,1.4c-1.3,0.7-2.7,1.5-3.9,2.4
		C149.9,155.8,149.4,156.1,148.9,156.4z"/>
	<path class="st0" d="M335,214.1c0-12.8,0-25.7,0-38.5c0-1.9,0.2-1.8-1.7-1.8c-18.8,0-37.6,0-56.3,0c-2,0-1.8-0.2-1.8,1.8
		c0,10.3,0,20.7,0,31c0,0.4,0,0.8,0,1.2c0,0.3-0.2,0.5-0.4,0.5c-0.4,0-0.9,0-1.3,0c-7,0-13.9,0-20.9,0c-0.3,0-0.6,0-0.9,0
		c-0.9,0-1,0.1-1,1c0,3.3,0,6.7,0,10c0,9.4,0,18.9,0,28.3c0,0.3,0,0.7,0,1c0,0.1-0.2,0.2-0.4,0.1c-0.2-0.1-0.4-0.3-0.5-0.5
		c-6.1-7.1-10.3-15.1-12.6-24.1c-0.9-3.5-1.5-7-1.8-10.6c-0.2-2.2-0.3-4.3-0.2-6.5c0.7-12.8,4.6-24.5,12.5-34.7
		c8.4-10.8,19.2-18.1,32.5-21.6c5.2-1.4,10.5-2,15.9-2c6.4,0,12.6,1,18.6,3c10.6,3.5,19.5,9.5,26.8,17.9
		c6.5,7.5,10.9,16.2,13.1,25.9c1.4,6.3,1.9,12.6,1.2,19.1c-1.2,12.6-6,23.7-14.1,33.4c-1.8,2.1-3.7,4-5.7,5.8
		c-0.2,0.2-0.4,0.3-0.6,0.4c-0.1,0.1-0.3,0-0.3-0.1c0-0.4,0-0.8,0-1.2C335,240.1,335,227.1,335,214.1z"/>
	<path class="st2" d="M191.1,146.1c0-0.3-0.1-0.6-0.3-0.8c-0.5-0.7-0.5-0.7,0.1-1.3c0.1-0.1,0.3-0.3,0.4-0.4
		c21.5-21.5,43-43,64.5-64.6c1.2-1.2,1-1.3,1.9,0.2c3.3,5.6,6.4,11.3,9.2,17.2c1.9,4,3.2,8.3,4.2,12.6c1.1,4.6,2.1,9.3,2.9,14
		c0.7,4.9,1.2,9.9,1,14.8c-0.1,3.1-0.4,6.3-0.8,9.4c-0.1,0.7-0.1,1.5-0.2,2.2c-0.9,0.4-1.8,0.8-2.7,1.2c-3.2,1.3-6.2,2.9-9.2,4.7
		c-2.8,1.6-5.3,3.6-7.8,5.6c-2.1,1.8-4.1,3.7-5.9,5.7c-2.8,3.1-5.3,6.4-7.5,10c-0.4,0.7-0.8,1.5-1.3,2.2c-0.3,0.4-0.5,0.4-0.8,0
		c-0.6-1-1.1-2.1-1.7-3.1c-2.2-3.6-4.7-6.9-7.5-10c-3.9-4.2-8.2-7.8-13-10.8c-3.8-2.4-7.9-4.3-12.1-5.8c-3.1-1.1-6.3-1.8-9.4-2.5
		C193.8,146.4,192.4,146.3,191.1,146.1z"/>
	<path class="st3" d="M156.8,151.8c-0.4-0.5-0.9-0.7-1.4-1c-5.2-3.3-10.7-6.3-16.1-9.3c-1.6-0.8-3.1-1.6-4.7-2.5
		c-0.3-0.2-0.7-0.2-0.8-0.6c0.1-0.4,0.4-0.6,0.7-0.9c12.5-12.7,24.9-25.3,37.4-38c8.9-9.1,17.8-18.1,26.7-27.2
		c0.2-0.2,0.4-0.3,0.5-0.5c0.6-0.7,0.8-0.7,1.6-0.3c4.5,2.4,8.8,5,13,7.9c5.6,3.8,10.9,7.9,15.9,12.4c1.2,1.1,1.1,0.9,0.1,2
		c-14.1,14.3-28.1,28.5-42.2,42.8c-2,2.1-4.1,4.1-6.1,6.2c-0.2,0.2-0.4,0.4-0.6,0.6c-0.2,0.2-0.2,0.4,0,0.7c0.4,0.5,0.9,0.9,1.2,1.5
		c-2.1,0.2-4.3,0.4-6.4,0.6c-1.6,0.2-3.2,0.4-4.8,0.8c-2.6,0.6-5.2,1.3-7.6,2.2c-1.7,0.6-3.4,1.4-5.1,2.1
		C157.6,151.4,157.2,151.6,156.8,151.8z"/>
	<path class="st0" d="M185.9,240.8c-0.9,0.3-1.9,0.2-2.8,0.1c-7.8-0.2-14.7-2.9-20.7-7.9c-3.4-2.9-6.1-6.3-8.2-10.3
		c-1.5-3-2.6-6-3.1-9.3c-0.4-2.6-0.7-5.3-0.4-7.9c0.1-1.3,0.2-2.6,0.4-3.9c0.7-3.8,2.1-7.3,4-10.6c0.5-0.9,0.9-1.7,1.6-2.5
		c3.5,2.7,6.7,5.8,9.4,9.3c3.6,4.6,7,9.5,10.1,14.5c3.1,5.1,5.8,10.4,7.4,16.1C184.9,232.5,185.8,236.6,185.9,240.8z"/>
	<path class="st1" d="M185.9,240.8c-0.1-4.3-1.1-8.4-2.2-12.4c-1.6-5.8-4.3-11.1-7.4-16.1c-3.1-5-6.4-9.9-10.1-14.5
		c-2.7-3.5-5.9-6.6-9.4-9.3c0.5-0.9,1.1-1.7,1.8-2.5c2.4-2.6,5-5.1,8.1-6.9c1.1-0.6,2.1-1.2,3.2-1.7c0.4-0.2,0.9-0.5,1.4-0.5
		c0.1,0.4,0.4,0.6,0.7,0.9c3.2,3.8,6.2,7.6,8.5,12c4.5,8.5,7.5,17.5,9.3,26.9c0.8,3.9,1.1,7.9,1.4,11.9c0.2,2.5,0.4,5,0.1,7.5
		c-0.1,1.4-0.3,2.7-0.5,4.1C189.2,240.5,187.6,241,185.9,240.8z"/>
	<path class="st2" d="M207.2,183.6c0.7,0.4,1.2,1.1,1.8,1.8c1.1,1.4,2.5,1.9,4.3,1.9c6.9,0,13.8,0,20.7,0c1.9,0,1.9,0,1.3,1.9
		c-0.4,1.4-1,2.7-1.2,4.1c-0.1,0.3-0.3,0.5-0.6,0.6c-0.1,0-0.1,0-0.1,0.1c-1.6,0.3-2.4,1.5-3.1,2.9c-0.9,1.8-1.8,3.6-2.7,5.4
		c-3.1,5.9-6.6,11.5-10.4,16.9c-1.2,1.8-2.5,3.5-3.8,5.3c-0.4,0.5-0.8,1-1.1,1.6c-1.4,2.1-3,4-4.8,5.8c-0.2,0.2-0.4,0.3-0.6,0.4
		c0.7-3.5,1.4-7,1.9-10.6c0.7-4.5,1-9,1.2-13.5c0-0.9,0-1.9,0-2.8c-0.3-5.9-1.1-11.7-2.1-17.5C207.7,186.4,207.3,185,207.2,183.6z"
		/>
	<path class="st3" d="M198.9,237.5c-0.4,0.3-0.9,0.6-1.4,0.6c0-1.6,0.1-3.1,0.1-4.7c0-4.6-0.4-9.1-0.8-13.7
		c-0.3-3.3-0.8-6.6-1.3-9.9c-1.7-9.6-5-18.6-10-26.9c-1.7-2.9-3.6-5.6-5.5-8.4c1.7-0.5,3.5-0.4,5.3-0.4c4.5,0.1,8.8,1.1,12.8,2.9
		c0.2,0.1,0.3,0.2,0.5,0.3c0,0.3,0,0.6,0.1,0.9c0.5,1.6,1,3.3,1.4,5c0.9,3.9,1.5,7.8,2.2,11.7c0.8,4.3,1.3,8.6,1.3,13
		c0,4-0.3,7.9-0.9,11.9c-0.8,5.5-1.9,10.9-3.4,16.3C199,236.6,198.8,237,198.9,237.5z"/>
	<path class="st0" d="M179.8,174.6c1.9,2.8,3.8,5.5,5.5,8.4c5.1,8.3,8.3,17.3,10,26.9c0.6,3.3,1,6.6,1.3,9.9
		c0.4,4.6,0.8,9.1,0.8,13.7c0,1.6-0.1,3.1-0.1,4.7c-0.5,0.3-1,0.6-1.6,0.8c-1.3,0.4-2.6,0.8-3.9,1.2c-0.4,0.1-0.8,0.2-1.1,0.1
		c0.2-1.4,0.3-2.7,0.5-4.1c0.3-2.5,0.1-5-0.1-7.5c-0.3-4-0.6-7.9-1.4-11.9c-1.8-9.4-4.8-18.4-9.3-26.9c-2.3-4.4-5.3-8.3-8.5-12
		c-0.3-0.3-0.6-0.6-0.7-0.9c0.1-0.1,0.1-0.1,0.2-0.2C174.2,175.6,176.9,174.8,179.8,174.6z"/>
	<path class="st0" d="M198.9,237.5c-0.1-0.5,0.1-0.9,0.2-1.3c1.5-5.3,2.6-10.8,3.4-16.3c0.6-3.9,0.9-7.9,0.9-11.9
		c0-4.4-0.6-8.7-1.3-13c-0.7-3.9-1.3-7.8-2.2-11.7c-0.4-1.7-0.9-3.3-1.4-5c-0.1-0.3-0.1-0.6-0.1-0.9c1.5,0.5,2.9,1.4,4.2,2.3
		c1.4,0.9,2.7,1.9,3.9,3.1c0.2,0.2,0.4,0.5,0.7,0.8c0,1.4,0.5,2.8,0.7,4.2c1,5.8,1.8,11.6,2.1,17.5c0,0.9,0.1,1.9,0,2.8
		c-0.2,4.5-0.6,9-1.2,13.5c-0.5,3.5-1.2,7.1-1.9,10.6c-2.2,2.1-4.6,3.8-7.4,5.1C199.3,237.3,199.1,237.4,198.9,237.5z"/>
	<path class="st2" d="M190.4,146c0.1-0.1,0.2-0.1,0.3,0C190.6,146.1,190.5,146.1,190.4,146z"/>
	<path class="st2" d="M274.3,149.3c0.1-0.1,0.2-0.1,0.3-0.1C274.5,149.4,274.4,149.4,274.3,149.3z"/>
</g>
</svg>
