<?xml version="1.0" encoding="utf-8"?>
<!-- Generator: Adobe Illustrator 24.0.1, SVG Export Plug-In . SVG Version: 6.00 Build 0)  -->
<svg version="1.1" id="Layer_1" xmlns="http://www.w3.org/2000/svg" xmlns:xlink="http://www.w3.org/1999/xlink" x="0px" y="0px"
	 viewBox="0 0 360 360" style="enable-background:new 0 0 360 360;" xml:space="preserve">
<style type="text/css">
	.st0{fill:#2F2E2D;}
	.st1{fill:url(#SVGID_1_);}
	.st2{fill:#A7A9AC;}
	.st3{fill:#013F57;stroke:#013F57;stroke-width:2;stroke-miterlimit:10;}
	.st4{fill:url(#SVGID_2_);}
	.st5{font-family:'CenturyGothic-Bold';}
	.st6{font-size:20.0082px;}
	.st7{letter-spacing:4;}
</style>
<g>
	<g>
		<path class="st0" d="M355.02,216.53c-8.14-46.16-68.05-54-88.79-14.15c-3.61,5.95-3.54,12.15-5.57,18.75
			c-5.76,9.36-14.93,20.78-21.46,24.72c-20.27,10.8-44.83-0.83-43.02-23.76c1.46-26.43,34.83-31.78,50.6-15.58
			c5.81-3.08,18.71-9.13,18.35-10.4c-4.37-6.12-9.92-10.63-16.57-14.04c-26.24-12.92-60.89-2.97-72,24.29
			c-3.12-32.35-35.85-37.84-57.33-18.53c-0.68-2.44,0.85-7.21-0.64-8.98c-7.22-0.09-14.18-0.04-21.52,0.01
			c-1.49,8.84,0.58,19.89-0.65,29.16c-11.28-36.61-61.94-42.08-82.8-12.72c-8.24,11.22-10.56,25.86-7.79,39.21
			C13,268.56,50.3,277.84,76.75,265.3c6.28-2.88,17.36-13.39,15.46-14.79c-8.17-3.29-17.18-9.23-18.89-8.01
			c-10.3,10.3-29.46,11.8-40.16,0.98c-13.92-14.1-9.74-36.26,6.46-44.7c17.9-9.11,39.22,3.5,40.3,22.17
			c0.24-0.04,0.58-0.09,0.77-0.1c0.43-0.08,0.76-0.16,1.56-0.07c0.31-0.08,0.63-0.16,0.97-0.13c2.84-0.83,6.66-0.91,9.15-3.64
			c1.14-0.73,4.11-5.34,4.07-4.31c0.53,16.98,0.14,30.95,0.24,46.66c0.44,2.48-1.03,8.73,0.86,8.96c6.78-0.54,15.8,1.07,21.57-0.6
			c0.76-33.56-3.33-57.49,8.42-66.34c10.25-8.27,24.2-3.28,25.44,9.33c2.1,19.04,0.16,38.38,1.1,57.44c7,0.33,15.62,0.58,22.26-0.17
			c0.28-8.99-0.17-17.4,0.12-26.34c0.06-0.01,0.12-0.03,0.19-0.04c14.73,36.67,71.54,38.95,90.75,5.75
			c24.6,39.28,81.35,26.14,87.91-17.88l0-11.82C355.21,217.28,355.07,216.91,355.02,216.53z M332.17,225.01
			c-1.95,33.92-48.47,32.1-48.55-0.76C283.54,187.66,333.96,189.94,332.17,225.01z"/>
		
			<linearGradient id="SVGID_1_" gradientUnits="userSpaceOnUse" x1="61.2443" y1="234.5475" x2="61.2443" y2="209.3092" gradientTransform="matrix(1 2.036085e-04 -2.036085e-04 1 0.2124 0.0442)">
			<stop  offset="0.1759" style="stop-color:#00568F"/>
			<stop  offset="1" style="stop-color:#066FB1"/>
		</linearGradient>
		<path class="st1" d="M96.52,217.66c0,0-0.35,3.1-2.26,6.77c-0.68,1.29-1.84,2.72-2.85,4.02c-3.13,4.05-8.89,6.33-15.11,6.15
			c-9.62-0.28-23.99-5.71-34.59-7.1c-9.35-1.23-15.58,1.55-15.58,1.55s2.23-6.37,7.74-10.11c6.1-4.15,14.79-3.46,17.41-2.88
			c5.54,1.23,13.24,4.53,20,5c3.4,0.24,11.75-0.36,16.82-2.42c2.57-1.05,4.98-3.32,6.46-5.37c1.41-1.95,2.15-3.89,2.15-3.89
			L96.52,217.66z"/>
	</g>
	<path class="st2" d="M162.91,109.99c1.21,0.25,2.36,0.15,3.5,0.15c9.84,0.04,19.68,0.06,29.52,0.08c0.4,0,0.8-0.06,1.24-0.1
		c0.88,1.91,0.75,3.88,0.63,5.82c-0.85,0.4-0.96,0.72-0.47,1.38c0.39,0.53,0.57,1.07,0.53,1.7c-0.05,0.8-0.01,1.61-0.02,2.42
		c0,0.14-0.01,0.3-0.09,0.4c-0.17,0.22-0.18,0.44-0.19,0.69c0,0.26-0.06,0.53-0.13,0.79c-0.04,0.16-0.06,0.28,0.07,0.42
		c0.24,0.26,0.35,0.56,0.33,0.89c-0.02,0.34,0,0.69,0,1.02c-0.12,0.07-0.23,0.13-0.32,0.19c-0.52,0.36-0.66,1.04-0.29,1.52
		c0.44,0.56,0.64,1.17,0.61,1.85c-0.03,0.72-0.03,1.43-0.02,2.15c0,0.33-0.06,0.63-0.28,0.91c-0.09,0.11-0.15,0.22-0.23,0.33
		c-0.36,0.51-0.35,0.99,0.13,1.44c0.29,0.27,0.38,0.55,0.37,0.9c-0.02,1.53-0.02,3.07-0.02,4.6c0,0.23-0.05,0.41-0.31,0.54
		c-3.88,2-8.03,3.42-12.52,4.03c-6.4,0.87-12.52,0.03-18.4-2.24c-1.43-0.55-2.79-1.21-4.14-1.89c-0.25-0.13-0.35-0.28-0.35-0.53
		c0.02-1.61-0.02-3.22,0.04-4.83c0.02-0.63,0.24-1.26,0.4-1.88c0.04-0.16,0.06-0.29-0.06-0.43c-0.28-0.31-0.35-0.66-0.34-1.05
		c0.02-0.88,0.01-1.76,0.01-2.65c0-0.3,0.07-0.57,0.29-0.82c0.2-0.22,0.33-0.49,0.46-0.74c0.04-0.09,0.02-0.23-0.04-0.32
		c-0.16-0.29-0.32-0.58-0.52-0.85c-0.12-0.16-0.17-0.32-0.17-0.5c0-0.33-0.01-0.67-0.02-1c0-0.13,0.02-0.24,0.16-0.34
		c0.11-0.08,0.19-0.2,0.25-0.31c0.15-0.28,0.39-0.57,0.38-0.85c-0.01-0.26-0.27-0.52-0.46-0.76c-0.24-0.3-0.32-0.61-0.31-0.97
		c0.02-0.91,0.02-1.82,0.01-2.72c0-0.3,0.08-0.57,0.26-0.84c0.39-0.58,0.35-1.16-0.02-1.74c-0.1-0.16-0.19-0.36-0.2-0.54
		c-0.07-1.42-0.07-2.84,0.33-4.23C162.62,110.71,162.77,110.36,162.91,109.99z M180.09,102.24c5.22,0,10.44,0,15.66,0
		c0.21,0,0.42,0,0.63-0.02c0.75-0.06,1.33-0.5,1.46-1.13c0.06-0.26,0.06-0.53,0.07-0.8c0.02-5.47,0.03-10.95,0.05-16.42
		c0.01-1.82,0-3.63,0.03-5.45c0.02-0.92-0.62-1.66-1.88-1.64c-0.06,0-0.12,0-0.18,0c-10.53-0.03-21.07-0.06-31.6-0.08
		c-0.18,0-0.36,0-0.54,0.02c-0.7,0.1-1.19,0.43-1.37,1.02c-0.07,0.22-0.08,0.45-0.08,0.68c-0.02,5.18-0.04,10.36-0.07,15.54
		c-0.01,2.19-0.01,4.37-0.03,6.56c-0.01,0.9,0.63,1.66,1.91,1.63c0.05,0,0.09,0,0.14,0C169.56,102.16,180.09,102.21,180.09,102.24z
		 M197.24,142.64c-0.63,0.3-1.25,0.62-1.89,0.91c-3.09,1.4-6.37,2.37-9.82,2.93c-1.34,0.22-2.69,0.29-4.05,0.36
		c-1.45,0.08-2.9,0.06-4.34-0.05c-2.38-0.18-4.71-0.62-6.98-1.25c-2.64-0.74-5.16-1.72-7.53-2.97c-0.17-0.09-0.35-0.17-0.59-0.28
		c0,0.83-0.01,1.58,0,2.33c0.01,0.86-0.01,1.72,0.08,2.57c0.28,2.62,1.67,4.77,3.99,6.5c0.09,0.06,0.18,0.12,0.35,0.22
		c-0.05-0.26-0.08-0.45-0.12-0.63c-0.1-0.54-0.23-1.09-0.03-1.63c0.03-0.09,0.1-0.16,0.17-0.27c0.27,0.24,0.33,0.51,0.44,0.75
		c0.4,0.93,0.89,1.82,1.53,2.65c0.21,0.27,0.46,0.45,0.81,0.58c1.78,0.63,3.63,0.81,5.54,0.75c0.04,0,0.07-0.03,0.13-0.06
		c-0.05-0.13-0.09-0.25-0.15-0.37c-0.26-0.59-0.43-1.2-0.45-1.83c-0.02-0.51,0.02-1.02,0.22-1.51c0.08-0.2,0.15-0.42,0.43-0.53
		c0.16,0.16,0.18,0.35,0.2,0.54c0.17,1.15,0.48,2.26,1.01,3.33c0.21,0.43,0.22,0.44,0.76,0.44c2.26,0.01,4.53,0.01,6.79,0.02
		c0.08,0,0.15,0,0.23,0c0.25,0.01,0.39-0.09,0.48-0.28c0.07-0.17,0.16-0.33,0.24-0.5c0.48-1.02,0.71-2.08,0.91-3.16
		c0.02-0.13,0.09-0.25,0.16-0.43c0.11,0.1,0.2,0.15,0.23,0.21c0.12,0.29,0.27,0.57,0.34,0.87c0.23,0.97,0.01,1.91-0.38,2.82
		c-0.06,0.14-0.12,0.28-0.18,0.43c0.09,0.02,0.13,0.04,0.17,0.04c1.87-0.01,3.65-0.33,5.33-1.04c0.26-0.11,0.48-0.25,0.65-0.46
		c0.5-0.59,0.94-1.22,1.3-1.89c0.19-0.36,0.38-0.72,0.58-1.08c0.05-0.09,0.14-0.17,0.25-0.31c0.2,0.37,0.17,0.69,0.17,1
		c0,0.32-0.05,0.65-0.08,0.98c0.06-0.01,0.09-0.01,0.11-0.03c0.31-0.3,0.63-0.58,0.93-0.89c1.67-1.75,2.55-3.75,2.58-6
		c0.02-1.19,0.01-2.38,0.02-3.57c0-0.13,0-0.25,0-0.46C197.52,142.5,197.38,142.57,197.24,142.64z M164.16,103.52
		c-0.11,0-0.21,0-0.32,0c-0.88,0.04-1.53,0.56-1.62,1.3c-0.01,0.1-0.02,0.2-0.02,0.31c-0.01,1.04-0.01,2.07-0.02,3.11
		c0,0.1,0,0.2,0.02,0.31c0.1,0.8,0.76,1.32,1.71,1.35c0.17,0,0.33,0,0.5,0c7.3,0.02,14.61,0.05,21.91,0.07
		c3.23,0.01,6.46,0.01,9.69,0.01c1.11,0,1.81-0.59,1.83-1.53c0.01-0.58,0-1.15,0-1.73c0-0.54,0.01-1.07,0-1.61
		c-0.01-0.9-0.71-1.48-1.77-1.5c-0.2,0-0.39,0-0.59,0c-5.15,0-10.29,0-15.44,0C180.05,103.57,169.46,103.52,164.16,103.52z
		 M164.87,102.48c-0.1,0-0.2,0-0.3,0c-0.84,0-1.46,0.03-1.55,0.08c-0.01,0.01-0.02,0.01-0.02,0.02c-0.01,0.06-0.01,0.13-0.02,0.19
		c0,0.01,0,0.01,0.02,0.02c0.09,0.05,0.72,0.08,1.64,0.08c0.16,0,0.32,0,0.48,0c6.98,0,13.95,0.01,20.93,0.01c3.09,0,6.17,0,9.26,0
		c1.06,0,1.73-0.04,1.74-0.09c0.01-0.04,0-0.07,0-0.11c0-0.03,0.01-0.07,0-0.1c-0.01-0.06-0.68-0.09-1.69-0.09
		c-0.19,0-0.37,0-0.56,0c-4.92,0-9.83,0-14.75,0C180.05,102.48,169.93,102.48,164.87,102.48z M188.12,60.89
		c-1.54,0.18-3.08,0.35-4.62,0.53c-0.31,0.04-0.37-0.01-0.4-0.27c-0.01-0.09-0.01-0.18-0.01-0.27c0.03-0.52,0.17-0.64,0.77-0.71
		c1.17-0.13,2.33-0.26,3.5-0.4c0.59-0.07,1.19-0.15,1.8-0.22c0-0.37,0-0.7,0-1.08c-0.18,0.02-0.32,0.03-0.47,0.05
		c-0.75,0.09-1.49,0.18-2.24,0.26c-2.05,0.24-4.09,0.49-6.14,0.73c-2.02,0.24-4.03,0.48-6.05,0.72c-0.16,0.02-0.33,0.03-0.5,0.02
		c-0.34-0.02-0.58-0.22-0.64-0.5c-0.06-0.26,0.09-0.51,0.39-0.63c0.13-0.05,0.29-0.08,0.43-0.1c1.93-0.23,3.85-0.46,5.78-0.69
		c2.88-0.34,5.76-0.68,8.65-1.02c0.26-0.03,0.52-0.08,0.81-0.12c-0.09-0.58-0.43-0.97-1.02-1.15c-0.3-0.09-0.65-0.12-0.97-0.12
		c-4.56-0.02-9.11-0.03-13.67-0.05c-0.17,0-0.33-0.01-0.5,0c-0.87,0.05-1.51,0.56-1.59,1.28c0.13,0,0.27,0.01,0.4,0
		c1.83-0.24,3.66-0.48,5.5-0.72c0.46-0.06,0.92-0.13,1.39-0.17c0.3-0.03,0.38,0.03,0.44,0.27c0.03,0.11,0.04,0.23,0.02,0.34
		c-0.04,0.39-0.22,0.56-0.69,0.63c-0.33,0.05-0.65,0.09-0.98,0.14c-1.88,0.25-3.76,0.49-5.63,0.74c-0.49,0.06-0.49,0.07-0.49,0.47
		c-0.01,1.1-0.01,2.2-0.01,3.3c0,0.1,0.02,0.2,0.03,0.29c0.6,0.08,17.47,0.11,17.78,0.02c0-0.46,0-0.93,0-1.4
		c0-0.07-0.02-0.15-0.03-0.26C188.77,60.81,188.44,60.85,188.12,60.89z M171.35,66.67c0,0.51-0.02,0.98,0.01,1.45
		c0.02,0.42-0.11,0.77-0.45,1.09c-0.33,0.31-0.65,0.64-0.96,0.97c-0.07,0.07-0.13,0.16-0.2,0.25c0.08,0.04,0.13,0.07,0.19,0.08
		c1.51,0.44,3.04,0.54,4.57,0.1c0.81-0.23,1.61-0.5,2.42-0.75c1.7-0.53,3.44-0.69,5.2-0.33c0.84,0.17,1.67,0.44,2.48,0.71
		c1.09,0.37,2.19,0.65,3.37,0.67c0.96,0.02,1.88-0.1,2.82-0.37c-0.09-0.11-0.15-0.19-0.23-0.27c-0.31-0.33-0.61-0.67-0.95-0.98
		c-0.36-0.32-0.5-0.67-0.46-1.11c0.04-0.47,0.01-0.94,0.01-1.46C183.21,66.72,177.31,66.69,171.35,66.67z M196.49,76.43
		c-0.6-0.63-1.2-1.25-1.79-1.88c-0.11-0.11-0.25-0.14-0.41-0.09c-0.2,0.06-0.4,0.11-0.6,0.18c-0.69,0.22-1.37,0.46-2.07,0.67
		c-1.91,0.58-3.87,0.69-5.83,0.25c-0.91-0.2-1.81-0.49-2.68-0.8c-1.85-0.64-3.69-0.71-5.55-0.08c-0.53,0.18-1.06,0.36-1.6,0.53
		c-1.38,0.43-2.79,0.62-4.26,0.52c-1.13-0.07-2.19-0.33-3.24-0.66c-0.72-0.23-1.44-0.46-2.16-0.68c-0.36-0.11-0.39-0.11-0.62,0.13
		c-0.54,0.55-1.08,1.1-1.62,1.65c-0.06,0.06-0.09,0.14-0.16,0.25c10.9,0.02,21.74,0.09,32.58,0.08
		C196.49,76.45,196.5,76.44,196.49,76.43z M193.19,72.98c-0.12-0.13-0.25-0.16-0.44-0.09c-0.28,0.1-0.56,0.19-0.84,0.28
		c-1.99,0.62-4.02,0.77-6.09,0.34c-0.94-0.19-1.84-0.49-2.72-0.81c-1.53-0.56-3.12-0.7-4.73-0.3c-0.66,0.16-1.3,0.4-1.95,0.61
		c-1.02,0.34-2.06,0.58-3.15,0.66c-1.69,0.12-3.3-0.15-4.86-0.68c-0.22-0.08-0.44-0.17-0.67-0.23c-0.1-0.03-0.27-0.02-0.33,0.03
		c-0.29,0.26-0.54,0.53-0.8,0.79c1.02,0.34,1.98,0.67,2.95,0.98c1.86,0.61,3.73,0.65,5.6,0.02c0.57-0.19,1.15-0.38,1.73-0.56
		c2.19-0.69,4.39-0.7,6.59,0c0.52,0.17,1.03,0.36,1.55,0.53c1.67,0.56,3.4,0.74,5.14,0.3c1.24-0.31,2.44-0.74,3.71-1.13
		C193.62,73.44,193.4,73.21,193.19,72.98z M171.4,65.05c0.93,0.08,17.42,0.11,17.75,0.03c0-0.58,0-1.16,0-1.79
		c-5.92,0-11.81,0-17.76,0C171.39,63.87,171.37,64.46,171.4,65.05z M169.68,72.51c1.78,0.57,3.56,0.6,5.35,0.05
		c0.57-0.17,1.12-0.37,1.68-0.56c1.9-0.63,3.84-0.78,5.81-0.32c0.79,0.19,1.56,0.47,2.33,0.73c1.53,0.52,3.11,0.76,4.73,0.47
		c0.84-0.15,1.64-0.42,2.46-0.64c0.09-0.03,0.18-0.08,0.29-0.13c-0.19-0.2-0.39-0.37-0.53-0.56c-0.2-0.28-0.45-0.3-0.8-0.22
		c-1.71,0.41-3.45,0.46-5.18,0.1c-0.94-0.2-1.84-0.49-2.72-0.82c-1.86-0.68-3.74-0.71-5.62-0.04c-0.44,0.16-0.89,0.31-1.34,0.45
		c-1.7,0.54-3.45,0.73-5.24,0.48c-0.53-0.08-1.06-0.2-1.58-0.32c-0.16-0.03-0.29-0.06-0.41,0.06c-0.23,0.23-0.46,0.47-0.73,0.74
		C168.72,72.18,169.2,72.36,169.68,72.51z M196.67,141.33c-5,2.45-10.37,3.85-16.16,3.94c-1.01,0.02-2.02-0.07-3.03-0.13
		c-1.58-0.09-3.15-0.26-4.69-0.58c-3.65-0.76-7.06-1.98-10.25-3.65c-0.13-0.07-0.27-0.13-0.43-0.21c-0.01,0.31-0.01,0.31,0.13,0.41
		c0.08,0.06,0.17,0.1,0.26,0.15c4.86,2.53,10.08,4.11,15.82,4.38c2.4,0.11,4.77,0,7.12-0.36c3.85-0.58,7.45-1.76,10.86-3.38
		c0.41-0.19,0.8-0.4,1.2-0.61c0.17-0.09,0.31-0.2,0.22-0.47C197.34,141,197.01,141.17,196.67,141.33z M170.87,66.4
		c4.34,0.01,8.69,0.03,13.03,0.04c1.85,0.01,3.71,0.01,5.56,0.01c0.16,0,0.36,0.06,0.49-0.11c-0.13-0.2-0.35-0.12-0.52-0.12
		c-5.47-0.02-10.95-0.04-16.42-0.06c-0.74,0-1.48-0.01-2.22-0.01c-0.16,0-0.34-0.03-0.42,0.24C170.58,66.4,170.73,66.4,170.87,66.4z
		"/>
	<g>
		<path class="st3" d="M168.23,105.12c0,0-22.98-19.14-43.24,3.31c-5.68,6.29-5.53,12.77-4.58,17.89c0.57,3.07,2.73,7.26,5.9,10.58
			c3.06,3.2,7.08,5.57,10.98,6.88c9.39,3.16,19.19,0.14,20.36-0.32c12.21-4.8,22.6-15.4,22.6-15.4s2.48,2.27,5.98,5.32
			c4.47,3.88,11.43,9.11,19.39,11.22c4.78,1.26,9.91,1.21,15.08-0.4c10.96-3.4,16.58-10.07,18.58-16.97
			c1.74-6.02,0.66-12.49-1.53-16.34c0,0-5.02,7.84-8.99,9.53c0,0,0.27,3.56-1.68,7.24c-1.65,3.1-5.07,6.29-9.66,7.44
			c-3.6,0.9-8.68,0.92-14.72-1.81c-4.59-2.08-8.76-6.6-15.19-11.78c0,0,20.2-23.4,36.31-10.49c0,0,5.15-4,4.8-9.65
			c0,0-10.81-6.15-23.86-2.36c-2.7,0.78-7.68,2.92-11.88,5.68c-6.83,4.48-12.58,10.28-12.58,10.28l-4.2-3.64c0,0-2.79,2.53-3.77,3.3
			c-0.96,0.76-4.01,2.82-4.01,2.82l4.66,4.05c0,0-4.68,4.68-10.1,8.37c-3.61,2.46-7.84,4.21-10.2,4.81c-1.46,0.38-4.29,1.14-7,0.86
			c-3.49-0.36-6.75-2.1-6.75-2.1s-3.42-2.12-5.1-4.66c-0.47-0.72-1.41-2.2-1.78-3.94c-0.26-1.17-1.33-6.89,2.22-11.34
			c2.67-3.35,7.73-6.45,14.48-6.1c1.78,0.09,3.86,0.43,5.94,1.2c1.78,0.66,3.52,1.68,5.38,2.54c0,0,3.46-2.12,4.55-2.91
			c0.93-0.67,3.71-3.06,3.71-3.06L168.23,105.12z"/>
		
			<linearGradient id="SVGID_2_" gradientUnits="userSpaceOnUse" x1="366.5932" y1="-1199.5477" x2="366.5932" y2="-1151.5996" gradientTransform="matrix(-1 -2.036085e-04 2.036085e-04 -1 546.8569 -1074.1302)">
			<stop  offset="0.3826" style="stop-color:#054973"/>
			<stop  offset="0.648" style="stop-color:#066FB1"/>
		</linearGradient>
		<path class="st4" d="M191.82,117.75c0,0,22.98,19.14,43.24-3.31c5.68-6.29,5.53-12.77,4.58-17.89c-0.57-3.07-2.73-7.26-5.9-10.58
			c-3.06-3.2-7.08-5.57-10.98-6.88c-9.39-3.16-19.19-0.14-20.36,0.32c-12.21,4.8-22.6,15.4-22.6,15.4s-2.48-2.27-5.98-5.32
			c-4.47-3.88-11.43-9.11-19.39-11.22c-4.78-1.26-9.91-1.21-15.08,0.4c-10.96,3.4-16.58,10.07-18.58,16.97
			c-1.74,6.02-0.66,12.49,1.53,16.34c0,0,5.02-7.84,8.99-9.53c0,0-0.27-3.56,1.68-7.24c1.65-3.1,5.07-6.29,9.66-7.44
			c3.6-0.9,8.68-0.92,14.72,1.81c4.59,2.08,8.76,6.6,15.19,11.78c0,0-20.2,23.4-36.31,10.49c0,0-5.15,4-4.8,9.65
			c0,0,10.81,6.15,23.86,2.36c2.7-0.78,7.68-2.92,11.88-5.68c6.83-4.48,12.58-10.28,12.58-10.28l4.2,3.64c0,0,2.79-2.53,3.77-3.3
			c0.96-0.76,4.01-2.82,4.01-2.82l-4.66-4.05c0,0,4.68-4.68,10.1-8.37c3.61-2.46,7.84-4.21,10.2-4.81c1.46-0.37,4.29-1.14,7-0.86
			c3.49,0.36,6.75,2.1,6.75,2.1s3.42,2.12,5.1,4.66c0.47,0.72,1.41,2.2,1.78,3.94c0.26,1.17,1.33,6.89-2.22,11.34
			c-2.67,3.35-7.73,6.45-14.48,6.1c-1.78-0.09-3.86-0.43-5.94-1.2c-1.78-0.66-3.52-1.68-5.38-2.54c0,0-3.46,2.12-4.55,2.91
			c-0.93,0.67-3.71,3.06-3.71,3.06L191.82,117.75z"/>
	</g>
	<text transform="matrix(1 2.036085e-04 -2.036085e-04 1 19.5421 299.639)" class="st0 st5 st6 st7">BOTTLING CORPORATION</text>
</g>
</svg>
